<svg id="Layer_1" data-name="Layer 1" xmlns="http://www.w3.org/2000/svg" viewBox="0 0 595.28 841.89"><defs><style>.cls-1{fill:#fff;}</style></defs><title>HK_Stjerne_Hvit</title><path class="cls-1" d="M438,376.69A274.87,274.87,0,0,0,313,414q1.64-6.6,3.47-13.13a302.52,302.52,0,0,1,67.77-24,2.28,2.28,0,0,0,1.87-2.73,2.49,2.49,0,0,0-2.93-2,257.54,257.54,0,0,0-63.38,17.52,413,413,0,0,1,40-89.09,2.69,2.69,0,0,0-.48-3.55,2.5,2.5,0,0,0-3.63.76,315.5,315.5,0,0,0-46.32,96.54q-4.34,2-8.59,4.23-3-4.12-6-8.18a468.39,468.39,0,0,1,31.17-99.7c.7-1.71.52-3.74-1.42-4.52-2.11-.85-3.5.12-4.39,1.8A388.22,388.22,0,0,0,286.71,380a413.28,413.28,0,0,0-88.34-81.93,2.7,2.7,0,0,0-3.62.53,2.86,2.86,0,0,0,.33,4A513.18,513.18,0,0,1,284.2,392c-.89,4.68-1.71,9.37-2.44,14.1A384.65,384.65,0,0,0,192.42,329a2.59,2.59,0,0,0-2.69,4.43,484.48,484.48,0,0,1,85.39,80.4,260.73,260.73,0,0,0-76.38,79.83,2.72,2.72,0,0,0,.75,3.77,3.09,3.09,0,0,0,4-.76,306.66,306.66,0,0,1,76.14-74.3q-.87,7.8-1.43,15.68a278.07,278.07,0,0,0-46.34,47.92,2.39,2.39,0,0,0,.55,3.28,2.57,2.57,0,0,0,3.52-.12,320.28,320.28,0,0,1,41.65-40q-.36,8.3-.36,16.67c0,17.29,1.12,36.83,4.92,54.47a3.05,3.05,0,0,0,3.12,2.31,2.72,2.72,0,0,0,2.42-3.12q-1.55-19.14-1.56-38.7c0-13.29.57-26.44,1.64-39.45q2.82-2.07,5.67-4.08,2.91,4,5.74,8a327.36,327.36,0,0,0-2.27,38.52,2.6,2.6,0,0,0,2.42,2.75,2.52,2.52,0,0,0,2.78-2.47q1-15.15,3.13-30a482,482,0,0,1,38.17,68.36A3,3,0,0,0,347,524a2.86,2.86,0,0,0,1.81-3.6A381.7,381.7,0,0,0,307.44,440q1.06-6,2.31-12A510.28,510.28,0,0,1,342,485.84c1,1.77,2.21,2.05,3.65,1.57a2.92,2.92,0,0,0,1.85-3.69,409.79,409.79,0,0,0-31-61.38,316.68,316.68,0,0,1,121.59-40.82A2.38,2.38,0,0,0,440.4,379,2.06,2.06,0,0,0,438,376.69ZM292.48,403l0,0,0,0Zm10.66,17c-2.27,1.46-4.52,2.94-6.74,4.46-1.15-1.53-2.34-3-3.51-4.55l-3.21-4.15,8.36-5.05,6,8.68-.9.59Zm3-13.67-.09-.14.14-.07A1.6,1.6,0,0,1,306.17,406.31Z"/></svg>